<?xml version="1.0" encoding="UTF-8"?>
<!DOCTYPE svg PUBLIC "-//W3C//DTD SVG 1.1//EN" "http://www.w3.org/Graphics/SVG/1.1/DTD/svg11.dtd">
<!-- Creator: CorelDRAW -->
<svg xmlns="http://www.w3.org/2000/svg" xml:space="preserve" width="2048px" height="2048px" style="shape-rendering:geometricPrecision; text-rendering:geometricPrecision; image-rendering:optimizeQuality; fill-rule:evenodd; clip-rule:evenodd"
viewBox="0 0 2048 2048"
 xmlns:xlink="http://www.w3.org/1999/xlink">
 <defs>
  <style type="text/css">
   <![CDATA[
    .fil2 {fill:none}
    .fil1 {fill:#212121;fill-rule:nonzero}
    .fil0 {fill:#66BB6A;fill-rule:nonzero}
   ]]>
  </style>
 </defs>
 <g id="Layer_x0020_1">
  <metadata id="CorelCorpID_0Corel-Layer"/>
  <path class="fil0" d="M382.029 773.05c17.002,-34.1268 36.8362,-67.0335 59.3717,-98.4013 22.7953,-31.7292 48.0508,-61.5485 75.6201,-89.1178 18.013,-18.013 36.8599,-34.9642 56.4473,-50.8099 19.3595,-15.6626 39.8481,-30.4796 61.3607,-44.4048l13.0311 20.0622 -13.0417 -20.1473c11.126,-7.20237 25.9866,-4.02048 33.189,7.10552 0.637796,0.98504 1.19055,1.99843 1.66772,3.03425l52.8733 91.5792 0.0897638 -0.0519685c6.62717,11.4791 2.6941,26.1579 -8.78505,32.7851l-0.0791339 0.0448819c-15.4075,10.239 -30.2563,21.1795 -44.478,32.7945 -14.2122,11.6055 -28.2662,24.3402 -42.1052,38.178 -21.9024,21.9036 -41.6008,45.0532 -58.9973,69.2067 -17.589,24.4217 -33.2221,50.3894 -46.7894,77.6375l-21.4689 -10.6878 21.4843 10.6973c-5.90788,11.8654 -20.3162,16.6949 -32.1815,10.787 -0.552756,-0.275197 -1.09016,-0.568111 -1.61102,-0.879922l-95.2217 -45.6839 10.3122 -21.5622 -10.3819 21.639c-11.9504,-5.73308 -16.9902,-20.0705 -11.2571,-32.0209 0.294095,-0.612993 0.611811,-1.20709 0.950788,-1.78347zm98.1851 -70.4634c-16.4929,22.9571 -31.4847,46.9252 -44.9126,71.752l54.0863 25.9488c11.8973,-21.6945 25.2449,-42.841 39.9922,-63.3178 19.3134,-26.8146 40.6453,-51.978 63.8729,-75.2068 14.2878,-14.2866 29.5996,-28.089 45.8563,-41.3646 10.1469,-8.28662 20.4827,-16.1941 30.9862,-23.7142l-30.0957 -52.128c-12.235,8.61733 -24.3579,17.7803 -36.3449,27.4784 -18.2823,14.791 -35.876,30.6142 -52.6961,47.4343 -26.2252,26.2252 -49.8473,54.0308 -70.7445,83.1178zm232.419 -256.024c47.9906,-23.1567 98.4934,-40.8933 150.639,-52.8449 52.3748,-12.0024 106.244,-18.1878 160.728,-18.1878 54.4264,0 108.241,6.17245 160.565,18.1512 52.6347,12.0508 103.605,29.9988 152.01,53.4674l-10.4067 21.5622 10.4705 -21.5953c11.9256,5.78268 16.9075,20.1402 11.1248,32.0658 -0.588189,1.21299 -1.26732,2.35276 -2.02087,3.41811l-52.9335 91.6843 -20.7189 -11.9067 20.7851 12c-6.62717,11.4791 -21.3059,15.4122 -32.7851,8.78505l-0.0129921 -0.00826772c-36.4252,-16.8933 -74.6174,-29.8335 -113.967,-38.5618 -39.4359,-8.74725 -80.341,-13.2496 -122.111,-13.2496 -41.824,0 -82.7847,4.51536 -122.273,13.285 -40.0642,8.89961 -78.9331,22.1681 -115.965,39.5339l0.0401575 0.0838583c-12,5.62796 -26.2925,0.462992 -31.9205,-11.537l-0.0720473 -0.159449 -52.9713 -91.7481 -0.0897638 0.0519685c-6.62717,-11.4791 -2.6941,-26.1579 8.78505,-32.7851 1.01102,-0.583465 2.04567,-1.08307 3.09921,-1.50473zm161.326 -6.15827c-40.7681,9.34371 -80.4674,22.4788 -118.621,39.2067l30.1902 52.2898c34.0914,-14.5051 69.5209,-25.8827 105.886,-33.9603 43.3902,-9.63662 87.815,-14.5984 132.586,-14.5984 44.7118,0 89.0812,4.94882 132.424,14.563 36.3083,8.05394 71.6894,19.3996 105.743,33.8658l30.1902 -52.291c-38.1059,-16.6843 -77.7579,-29.7886 -118.479,-39.1122 -48.5386,-11.1118 -98.7662,-16.8378 -149.878,-16.8378 -51.1666,0 -101.449,5.73898 -150.041,16.8744zm540.544 50.778c20.6776,13.448 40.6453,27.9414 59.8099,43.4374 19.9536,16.1351 38.8772,33.1205 56.667,50.9115 27.4618,27.4607 52.6323,57.1642 75.3686,88.767 22.7965,31.6902 42.8422,64.9689 59.9953,99.4997l0.0543308 -0.0271654c5.89607,11.8713 1.05236,26.2748 -10.8189,32.1709 -0.760631,0.377953 -1.53071,0.711024 -2.31024,1.00158l-95.243 45.6945 0.0425197 0.0897638c-11.9504,5.73308 -26.2878,0.693308 -32.0209,-11.2571 -0.258662,-0.538583 -0.494882,-1.08189 -0.709843,-1.62992 -13.1776,-26.113 -28.4693,-51.287 -45.7772,-75.2776 -17.328,-24.0213 -36.9449,-47.0563 -58.7504,-68.8619 -13.8744,-13.8744 -27.9709,-26.641 -42.2303,-38.2796 -14.9268,-12.1843 -30.2268,-23.4378 -45.8339,-33.7359l13.1256 -19.9689 -13.2177 20.0315c-11.0622,-7.29922 -14.113,-22.187 -6.81378,-33.2492l0.106299 -0.157087 53.1827 -92.1119 -0.0484252 -0.0283465c6.62717,-11.478 21.3059,-15.411 32.7839,-8.78387 0.930709,0.537402 1.80945,1.12795 2.63858,1.76457zm29.8099 80.7508c-11.9303,-9.64607 -24.1169,-18.8351 -36.5351,-27.5528l-30.1217 52.1705c10.6642,7.60867 21.0414,15.5268 31.1103,23.7461 16.298,13.3028 31.6536,27.1382 45.9815,41.4662 23.1213,23.1213 44.3717,48.1689 63.626,74.8619 14.5595,20.1827 27.8327,41.2028 39.7666,62.9386l54.15 -25.9795c-13.3866,-24.6768 -28.3264,-48.5103 -44.7555,-71.3481 -20.8276,-28.9512 -44.3658,-56.641 -70.493,-82.767 -17.1201,-17.1213 -34.7244,-32.9776 -52.7292,-47.5359z"/>
  <path class="fil1" d="M360.966 1092.51c0,13.2319 10.7268,23.9587 23.9587,23.9587 13.2319,0 23.9587,-10.7268 23.9587,-23.9587 0,-81.2812 15.7665,-158.878 44.4059,-229.904l-43.2922 -20.7697c-31.6075,77.3351 -49.0311,161.969 -49.0311,250.674zm1233.42 -230.699c28.8437,71.2418 44.7307,149.113 44.7307,230.699 0,13.2319 10.7268,23.9587 23.9587,23.9587 13.2319,0 23.9587,-10.7268 23.9587,-23.9587 0,-89.0091 -17.5441,-173.92 -49.3571,-251.469l-43.291 20.7697z"/>
  <path class="fil1" d="M372.312 1068.51l99.3544 0c13.2543,0 24,10.7457 24,24l0 319.446c0,13.2543 -10.7457,24 -24,24l-99.3544 0c-32.0103,0 -61.0961,-13.0795 -82.1646,-34.1469 -21.0685,-21.0685 -34.1481,-50.1544 -34.1481,-82.1646l0 -134.821c0,-32.0103 13.0795,-61.0973 34.1481,-82.1658 21.0685,-21.0685 50.1544,-34.1481 82.1646,-34.1481zm75.3544 48l-75.3544 0c-18.7606,0 -35.8347,7.69371 -48.2268,20.0858 -12.3921,12.3921 -20.0858,29.4673 -20.0858,48.228l0 134.821c0,18.7595 7.69371,35.8347 20.0858,48.2268 12.3921,12.391 29.4662,20.0847 48.2268,20.0847l75.3544 0 0 -271.446z"/>
  <path class="fil1" d="M1675.69 1116.51l-75.3544 0 0 271.446 75.3544 0c18.7606,0 35.8347,-7.69371 48.2268,-20.0847 12.3921,-12.3921 20.0858,-29.4673 20.0858,-48.2268l0 -134.821c0,-18.7606 -7.69371,-35.8359 -20.0858,-48.228 -12.3921,-12.3921 -29.4662,-20.0858 -48.2268,-20.0858zm-99.3544 -48l99.3544 0c32.0103,0 61.0961,13.0795 82.1646,34.1481 21.0685,21.0685 34.1481,50.1556 34.1481,82.1658l0 134.821c0,32.0103 -13.0795,61.0961 -34.1481,82.1646 -21.0685,21.0673 -50.1544,34.1469 -82.1646,34.1469l-99.3544 0c-13.2543,0 -24,-10.7457 -24,-24l0 -319.446c0,-13.2543 10.7457,-24 24,-24z"/>
  <path class="fil1" d="M418.063 1411.96c0,-13.2543 -10.7457,-24 -24,-24 -13.2543,0 -24,10.7457 -24,24 0,15.5894 -0.618898,28.7303 -1.20473,41.2004 -3.93307,83.6079 -6.76182,143.698 115.002,154.943 67.917,6.27284 183.682,3.74528 288.39,1.45866l2.24173 -0.0484252c13.2024,-0.258662 23.6965,-11.1732 23.4378,-24.3756 -0.258662,-13.2024 -11.1732,-23.6965 -24.3756,-23.4378l-2.24173 0.0484252c-103.478,2.25945 -217.88,4.75867 -283.139,-1.26969 -76.1127,-7.02993 -74.1839,-48.026 -71.5016,-105.067 0.676772,-14.4024 1.39134,-29.5807 1.39134,-43.4516z"/>
  <path class="fil1" d="M874.23 1499.21c32.2075,0 61.7658,8.40827 83.5135,22.0004 25.1421,15.7134 40.6937,38.4992 40.6937,64.6288 0,26.1307 -15.5516,48.9154 -40.6926,64.6288 -21.7477,13.5921 -51.3048,22.0004 -83.5146,22.0004 -32.2099,0 -61.767,-8.40827 -83.5146,-22.0004 -25.141,-15.7134 -40.6926,-38.4981 -40.6926,-64.6288 0,-26.1295 15.5516,-48.9154 40.6937,-64.6288 21.7477,-13.5921 51.3059,-22.0004 83.5135,-22.0004zm58.2 62.6871c-14.5181,-9.07442 -35.067,-14.687 -58.2,-14.687 -23.1331,0 -43.6819,5.6126 -58.2,14.687 -11.1248,6.95315 -18.0071,15.4843 -18.0071,23.9421 0,8.45788 6.88229,16.9902 18.0059,23.9421 14.5181,9.07324 35.067,14.687 58.2012,14.687 23.1343,0 43.6831,-5.61378 58.2012,-14.687 11.1236,-6.95197 18.0059,-15.4843 18.0059,-23.9421 0,-8.45788 -6.88229,-16.989 -18.0071,-23.9421z"/>
 </g>
 <rect class="fil2" width="2048" height="2048"/>
</svg>
